solid OpenSCAD_Model
  facet normal -0.951058 -0.309012 0
    outer loop
      vertex 131.5 76 9.5
      vertex 131.214 76.8817 12.5
      vertex 131.214 76.8817 9.5
    endloop
  endfacet
  facet normal -0.951058 -0.309012 0
    outer loop
      vertex 131.214 76.8817 12.5
      vertex 131.5 76 9.5
      vertex 131.5 76 12.5
    endloop
  endfacet
  facet normal -0.587785 0.809017 0
    outer loop
      vertex 131.214 75.1183 9.5
      vertex 130.464 74.5734 12.5
      vertex 131.214 75.1183 12.5
    endloop
  endfacet
  facet normal -0.587785 0.809017 0
    outer loop
      vertex 130.464 74.5734 12.5
      vertex 131.214 75.1183 9.5
      vertex 130.464 74.5734 9.5
    endloop
  endfacet
  facet normal 0.587785 -0.809017 0
    outer loop
      vertex 128.786 76.8817 9.5
      vertex 129.536 77.4266 12.5
      vertex 128.786 76.8817 12.5
    endloop
  endfacet
  facet normal 0.587785 -0.809017 0
    outer loop
      vertex 129.536 77.4266 12.5
      vertex 128.786 76.8817 9.5
      vertex 129.536 77.4266 9.5
    endloop
  endfacet
  facet normal -0.587785 -0.809017 0
    outer loop
      vertex 130.464 77.4266 9.5
      vertex 131.214 76.8817 12.5
      vertex 130.464 77.4266 12.5
    endloop
  endfacet
  facet normal -0.587785 -0.809017 -0
    outer loop
      vertex 131.214 76.8817 12.5
      vertex 130.464 77.4266 9.5
      vertex 131.214 76.8817 9.5
    endloop
  endfacet
  facet normal 0.951058 -0.309012 0
    outer loop
      vertex 128.5 76 12.5
      vertex 128.786 76.8817 9.5
      vertex 128.786 76.8817 12.5
    endloop
  endfacet
  facet normal 0.951058 -0.309012 0
    outer loop
      vertex 128.786 76.8817 9.5
      vertex 128.5 76 12.5
      vertex 128.5 76 9.5
    endloop
  endfacet
  facet normal 0 -1 0
    outer loop
      vertex 129.536 77.4266 9.5
      vertex 130.464 77.4266 12.5
      vertex 129.536 77.4266 12.5
    endloop
  endfacet
  facet normal 0 -1 -0
    outer loop
      vertex 130.464 77.4266 12.5
      vertex 129.536 77.4266 9.5
      vertex 130.464 77.4266 9.5
    endloop
  endfacet
  facet normal 0.951058 0.309012 0
    outer loop
      vertex 128.786 75.1183 12.5
      vertex 128.5 76 9.5
      vertex 128.5 76 12.5
    endloop
  endfacet
  facet normal 0.951058 0.309012 0
    outer loop
      vertex 128.5 76 9.5
      vertex 128.786 75.1183 12.5
      vertex 128.786 75.1183 9.5
    endloop
  endfacet
  facet normal 0.587785 0.809017 -0
    outer loop
      vertex 129.536 74.5734 9.5
      vertex 128.786 75.1183 12.5
      vertex 129.536 74.5734 12.5
    endloop
  endfacet
  facet normal 0.587785 0.809017 0
    outer loop
      vertex 128.786 75.1183 12.5
      vertex 129.536 74.5734 9.5
      vertex 128.786 75.1183 9.5
    endloop
  endfacet
  facet normal -0.951058 0.309012 0
    outer loop
      vertex 131.214 75.1183 9.5
      vertex 131.5 76 12.5
      vertex 131.5 76 9.5
    endloop
  endfacet
  facet normal -0.951058 0.309012 0
    outer loop
      vertex 131.5 76 12.5
      vertex 131.214 75.1183 9.5
      vertex 131.214 75.1183 12.5
    endloop
  endfacet
  facet normal 0 1 -0
    outer loop
      vertex 130.464 74.5734 9.5
      vertex 129.536 74.5734 12.5
      vertex 130.464 74.5734 12.5
    endloop
  endfacet
  facet normal 0 1 0
    outer loop
      vertex 129.536 74.5734 12.5
      vertex 130.464 74.5734 9.5
      vertex 129.536 74.5734 9.5
    endloop
  endfacet
  facet normal -0.951058 -0.309011 0
    outer loop
      vertex 131.5 4 9.5
      vertex 131.214 4.88168 12.5
      vertex 131.214 4.88168 9.5
    endloop
  endfacet
  facet normal -0.951058 -0.309011 0
    outer loop
      vertex 131.214 4.88168 12.5
      vertex 131.5 4 9.5
      vertex 131.5 4 12.5
    endloop
  endfacet
  facet normal -0.587785 0.809017 0
    outer loop
      vertex 131.214 3.11832 9.5
      vertex 130.464 2.57341 12.5
      vertex 131.214 3.11832 12.5
    endloop
  endfacet
  facet normal -0.587785 0.809017 0
    outer loop
      vertex 130.464 2.57341 12.5
      vertex 131.214 3.11832 9.5
      vertex 130.464 2.57341 9.5
    endloop
  endfacet
  facet normal 0.587785 -0.809017 0
    outer loop
      vertex 128.786 4.88168 9.5
      vertex 129.536 5.42658 12.5
      vertex 128.786 4.88168 12.5
    endloop
  endfacet
  facet normal 0.587785 -0.809017 0
    outer loop
      vertex 129.536 5.42658 12.5
      vertex 128.786 4.88168 9.5
      vertex 129.536 5.42658 9.5
    endloop
  endfacet
  facet normal -0.587785 -0.809017 0
    outer loop
      vertex 130.464 5.42658 9.5
      vertex 131.214 4.88168 12.5
      vertex 130.464 5.42658 12.5
    endloop
  endfacet
  facet normal -0.587785 -0.809017 -0
    outer loop
      vertex 131.214 4.88168 12.5
      vertex 130.464 5.42658 9.5
      vertex 131.214 4.88168 9.5
    endloop
  endfacet
  facet normal 0.951058 -0.309011 0
    outer loop
      vertex 128.5 4 12.5
      vertex 128.786 4.88168 9.5
      vertex 128.786 4.88168 12.5
    endloop
  endfacet
  facet normal 0.951058 -0.309011 0
    outer loop
      vertex 128.786 4.88168 9.5
      vertex 128.5 4 12.5
      vertex 128.5 4 9.5
    endloop
  endfacet
  facet normal 0 -1 0
    outer loop
      vertex 129.536 5.42658 9.5
      vertex 130.464 5.42658 12.5
      vertex 129.536 5.42658 12.5
    endloop
  endfacet
  facet normal 0 -1 -0
    outer loop
      vertex 130.464 5.42658 12.5
      vertex 129.536 5.42658 9.5
      vertex 130.464 5.42658 9.5
    endloop
  endfacet
  facet normal 0.951058 0.309011 0
    outer loop
      vertex 128.786 3.11832 12.5
      vertex 128.5 4 9.5
      vertex 128.5 4 12.5
    endloop
  endfacet
  facet normal 0.951058 0.309011 0
    outer loop
      vertex 128.5 4 9.5
      vertex 128.786 3.11832 12.5
      vertex 128.786 3.11832 9.5
    endloop
  endfacet
  facet normal -0.951058 0.309011 0
    outer loop
      vertex 131.214 3.11832 9.5
      vertex 131.5 4 12.5
      vertex 131.5 4 9.5
    endloop
  endfacet
  facet normal -0.951058 0.309011 0
    outer loop
      vertex 131.5 4 12.5
      vertex 131.214 3.11832 9.5
      vertex 131.214 3.11832 12.5
    endloop
  endfacet
  facet normal 0 1 -0
    outer loop
      vertex 130.464 2.57341 9.5
      vertex 129.536 2.57341 12.5
      vertex 130.464 2.57341 12.5
    endloop
  endfacet
  facet normal 0 1 0
    outer loop
      vertex 129.536 2.57341 12.5
      vertex 130.464 2.57341 9.5
      vertex 129.536 2.57341 9.5
    endloop
  endfacet
  facet normal 0.587785 0.809017 -0
    outer loop
      vertex 129.536 2.57341 9.5
      vertex 128.786 3.11832 12.5
      vertex 129.536 2.57341 12.5
    endloop
  endfacet
  facet normal 0.587785 0.809017 0
    outer loop
      vertex 128.786 3.11832 12.5
      vertex 129.536 2.57341 9.5
      vertex 128.786 3.11832 9.5
    endloop
  endfacet
  facet normal -0.951056 -0.309019 0
    outer loop
      vertex 115.5 76 9.5
      vertex 115.214 76.8817 12.5
      vertex 115.214 76.8817 9.5
    endloop
  endfacet
  facet normal -0.951056 -0.309019 0
    outer loop
      vertex 115.214 76.8817 12.5
      vertex 115.5 76 9.5
      vertex 115.5 76 12.5
    endloop
  endfacet
  facet normal -0.587785 0.809017 0
    outer loop
      vertex 115.214 75.1183 9.5
      vertex 114.464 74.5734 12.5
      vertex 115.214 75.1183 12.5
    endloop
  endfacet
  facet normal -0.587785 0.809017 0
    outer loop
      vertex 114.464 74.5734 12.5
      vertex 115.214 75.1183 9.5
      vertex 114.464 74.5734 9.5
    endloop
  endfacet
  facet normal 0.587785 -0.809017 0
    outer loop
      vertex 112.786 76.8817 9.5
      vertex 113.536 77.4266 12.5
      vertex 112.786 76.8817 12.5
    endloop
  endfacet
  facet normal 0.587785 -0.809017 0
    outer loop
      vertex 113.536 77.4266 12.5
      vertex 112.786 76.8817 9.5
      vertex 113.536 77.4266 9.5
    endloop
  endfacet
  facet normal -0.587785 -0.809017 0
    outer loop
      vertex 114.464 77.4266 9.5
      vertex 115.214 76.8817 12.5
      vertex 114.464 77.4266 12.5
    endloop
  endfacet
  facet normal -0.587785 -0.809017 -0
    outer loop
      vertex 115.214 76.8817 12.5
      vertex 114.464 77.4266 9.5
      vertex 115.214 76.8817 9.5
    endloop
  endfacet
  facet normal 0.951056 -0.309019 0
    outer loop
      vertex 112.5 76 12.5
      vertex 112.786 76.8817 9.5
      vertex 112.786 76.8817 12.5
    endloop
  endfacet
  facet normal 0.951056 -0.309019 0
    outer loop
      vertex 112.786 76.8817 9.5
      vertex 112.5 76 12.5
      vertex 112.5 76 9.5
    endloop
  endfacet
  facet normal 0 -1 0
    outer loop
      vertex 113.536 77.4266 9.5
      vertex 114.464 77.4266 12.5
      vertex 113.536 77.4266 12.5
    endloop
  endfacet
  facet normal 0 -1 -0
    outer loop
      vertex 114.464 77.4266 12.5
      vertex 113.536 77.4266 9.5
      vertex 114.464 77.4266 9.5
    endloop
  endfacet
  facet normal 0.951056 0.309019 0
    outer loop
      vertex 112.786 75.1183 12.5
      vertex 112.5 76 9.5
      vertex 112.5 76 12.5
    endloop
  endfacet
  facet normal 0.951056 0.309019 0
    outer loop
      vertex 112.5 76 9.5
      vertex 112.786 75.1183 12.5
      vertex 112.786 75.1183 9.5
    endloop
  endfacet
  facet normal 0.587785 0.809017 -0
    outer loop
      vertex 113.536 74.5734 9.5
      vertex 112.786 75.1183 12.5
      vertex 113.536 74.5734 12.5
    endloop
  endfacet
  facet normal 0.587785 0.809017 0
    outer loop
      vertex 112.786 75.1183 12.5
      vertex 113.536 74.5734 9.5
      vertex 112.786 75.1183 9.5
    endloop
  endfacet
  facet normal -0.951056 0.309019 0
    outer loop
      vertex 115.214 75.1183 9.5
      vertex 115.5 76 12.5
      vertex 115.5 76 9.5
    endloop
  endfacet
  facet normal -0.951056 0.309019 0
    outer loop
      vertex 115.5 76 12.5
      vertex 115.214 75.1183 9.5
      vertex 115.214 75.1183 12.5
    endloop
  endfacet
  facet normal 0 1 -0
    outer loop
      vertex 114.464 74.5734 9.5
      vertex 113.536 74.5734 12.5
      vertex 114.464 74.5734 12.5
    endloop
  endfacet
  facet normal 0 1 0
    outer loop
      vertex 113.536 74.5734 12.5
      vertex 114.464 74.5734 9.5
      vertex 113.536 74.5734 9.5
    endloop
  endfacet
  facet normal -0.951056 -0.309019 0
    outer loop
      vertex 115.5 4 9.5
      vertex 115.214 4.88168 12.5
      vertex 115.214 4.88168 9.5
    endloop
  endfacet
  facet normal -0.951056 -0.309019 0
    outer loop
      vertex 115.214 4.88168 12.5
      vertex 115.5 4 9.5
      vertex 115.5 4 12.5
    endloop
  endfacet
  facet normal -0.587785 0.809017 0
    outer loop
      vertex 115.214 3.11832 9.5
      vertex 114.464 2.57341 12.5
      vertex 115.214 3.11832 12.5
    endloop
  endfacet
  facet normal -0.587785 0.809017 0
    outer loop
      vertex 114.464 2.57341 12.5
      vertex 115.214 3.11832 9.5
      vertex 114.464 2.57341 9.5
    endloop
  endfacet
  facet normal 0.587785 -0.809017 0
    outer loop
      vertex 112.786 4.88168 9.5
      vertex 113.536 5.42658 12.5
      vertex 112.786 4.88168 12.5
    endloop
  endfacet
  facet normal 0.587785 -0.809017 0
    outer loop
      vertex 113.536 5.42658 12.5
      vertex 112.786 4.88168 9.5
      vertex 113.536 5.42658 9.5
    endloop
  endfacet
  facet normal -0.587785 -0.809017 0
    outer loop
      vertex 114.464 5.42658 9.5
      vertex 115.214 4.88168 12.5
      vertex 114.464 5.42658 12.5
    endloop
  endfacet
  facet normal -0.587785 -0.809017 -0
    outer loop
      vertex 115.214 4.88168 12.5
      vertex 114.464 5.42658 9.5
      vertex 115.214 4.88168 9.5
    endloop
  endfacet
  facet normal 0.951056 -0.309019 0
    outer loop
      vertex 112.5 4 12.5
      vertex 112.786 4.88168 9.5
      vertex 112.786 4.88168 12.5
    endloop
  endfacet
  facet normal 0.951056 -0.309019 0
    outer loop
      vertex 112.786 4.88168 9.5
      vertex 112.5 4 12.5
      vertex 112.5 4 9.5
    endloop
  endfacet
  facet normal 0 -1 0
    outer loop
      vertex 113.536 5.42658 9.5
      vertex 114.464 5.42658 12.5
      vertex 113.536 5.42658 12.5
    endloop
  endfacet
  facet normal 0 -1 -0
    outer loop
      vertex 114.464 5.42658 12.5
      vertex 113.536 5.42658 9.5
      vertex 114.464 5.42658 9.5
    endloop
  endfacet
  facet normal 0.951056 0.309018 0
    outer loop
      vertex 112.786 3.11832 12.5
      vertex 112.5 4 9.5
      vertex 112.5 4 12.5
    endloop
  endfacet
  facet normal 0.951056 0.309018 0
    outer loop
      vertex 112.5 4 9.5
      vertex 112.786 3.11832 12.5
      vertex 112.786 3.11832 9.5
    endloop
  endfacet
  facet normal -0.951056 0.309018 0
    outer loop
      vertex 115.214 3.11832 9.5
      vertex 115.5 4 12.5
      vertex 115.5 4 9.5
    endloop
  endfacet
  facet normal -0.951056 0.309018 0
    outer loop
      vertex 115.5 4 12.5
      vertex 115.214 3.11832 9.5
      vertex 115.214 3.11832 12.5
    endloop
  endfacet
  facet normal 0 1 -0
    outer loop
      vertex 114.464 2.57341 9.5
      vertex 113.536 2.57341 12.5
      vertex 114.464 2.57341 12.5
    endloop
  endfacet
  facet normal 0 1 0
    outer loop
      vertex 113.536 2.57341 12.5
      vertex 114.464 2.57341 9.5
      vertex 113.536 2.57341 9.5
    endloop
  endfacet
  facet normal 0.587785 0.809017 -0
    outer loop
      vertex 113.536 2.57341 9.5
      vertex 112.786 3.11832 12.5
      vertex 113.536 2.57341 12.5
    endloop
  endfacet
  facet normal 0.587785 0.809017 0
    outer loop
      vertex 112.786 3.11832 12.5
      vertex 113.536 2.57341 9.5
      vertex 112.786 3.11832 9.5
    endloop
  endfacet
  facet normal -1 0 0
    outer loop
      vertex 111 2 9.5
      vertex 111 78 12.5
      vertex 111 78 9.5
    endloop
  endfacet
  facet normal -1 -0 0
    outer loop
      vertex 111 78 12.5
      vertex 111 2 9.5
      vertex 111 2 12.5
    endloop
  endfacet
  facet normal 0 0 1
    outer loop
      vertex 112.786 75.1183 12.5
      vertex 119.75 53 12.5
      vertex 113.536 74.5734 12.5
    endloop
  endfacet
  facet normal 0 0 1
    outer loop
      vertex 119.75 29.875 12.5
      vertex 115.214 4.88168 12.5
      vertex 115.5 4 12.5
    endloop
  endfacet
  facet normal 0 0 1
    outer loop
      vertex 119.75 53 12.5
      vertex 112.786 75.1183 12.5
      vertex 119.75 50.1875 12.5
    endloop
  endfacet
  facet normal 0 0 1
    outer loop
      vertex 119.75 29.875 12.5
      vertex 114.464 5.42658 12.5
      vertex 115.214 4.88168 12.5
    endloop
  endfacet
  facet normal 0 0 1
    outer loop
      vertex 111 78 12.5
      vertex 119.75 50.1875 12.5
      vertex 112.786 75.1183 12.5
    endloop
  endfacet
  facet normal 0 0 1
    outer loop
      vertex 119.75 29.875 12.5
      vertex 113.536 5.42658 12.5
      vertex 114.464 5.42658 12.5
    endloop
  endfacet
  facet normal 0 0 1
    outer loop
      vertex 119.75 50.1875 12.5
      vertex 111 78 12.5
      vertex 119.75 29.875 12.5
    endloop
  endfacet
  facet normal 0 0 1
    outer loop
      vertex 119.75 29.875 12.5
      vertex 112.786 4.88168 12.5
      vertex 113.536 5.42658 12.5
    endloop
  endfacet
  facet normal 0 0 1
    outer loop
      vertex 111 78 12.5
      vertex 112.786 75.1183 12.5
      vertex 112.5 76 12.5
    endloop
  endfacet
  facet normal 0 0 1
    outer loop
      vertex 111 2 12.5
      vertex 119.75 29.875 12.5
      vertex 111 78 12.5
    endloop
  endfacet
  facet normal -0 0 1
    outer loop
      vertex 119.75 6.75 12.5
      vertex 126.25 4.25 12.5
      vertex 126.25 6.75 12.5
    endloop
  endfacet
  facet normal 0 0 1
    outer loop
      vertex 126.25 4.25 12.5
      vertex 119.75 6.75 12.5
      vertex 119.75 4.25 12.5
    endloop
  endfacet
  facet normal -0 0 1
    outer loop
      vertex 119.75 29.875 12.5
      vertex 126.25 27.0625 12.5
      vertex 126.25 29.875 12.5
    endloop
  endfacet
  facet normal 0 0 1
    outer loop
      vertex 126.25 27.0625 12.5
      vertex 119.75 29.875 12.5
      vertex 119.75 27.0625 12.5
    endloop
  endfacet
  facet normal -0 0 1
    outer loop
      vertex 119.75 53 12.5
      vertex 126.25 50.1875 12.5
      vertex 126.25 53 12.5
    endloop
  endfacet
  facet normal 0 0 1
    outer loop
      vertex 126.25 50.1875 12.5
      vertex 119.75 53 12.5
      vertex 119.75 50.1875 12.5
    endloop
  endfacet
  facet normal 0 0 1
    outer loop
      vertex 133 78 12.5
      vertex 126.25 50.1875 12.5
      vertex 133 2 12.5
    endloop
  endfacet
  facet normal 0 0 1
    outer loop
      vertex 133 2 12.5
      vertex 131.214 4.88168 12.5
      vertex 131.5 4 12.5
    endloop
  endfacet
  facet normal 0 0 1
    outer loop
      vertex 126.25 53 12.5
      vertex 131.214 75.1183 12.5
      vertex 130.464 74.5734 12.5
    endloop
  endfacet
  facet normal -0 0 1
    outer loop
      vertex 126.25 29.875 12.5
      vertex 133 2 12.5
      vertex 126.25 50.1875 12.5
    endloop
  endfacet
  facet normal 0 0 1
    outer loop
      vertex 126.25 73.3125 12.5
      vertex 130.464 74.5734 12.5
      vertex 129.536 74.5734 12.5
    endloop
  endfacet
  facet normal -0 0 1
    outer loop
      vertex 126.25 27.0625 12.5
      vertex 133 2 12.5
      vertex 126.25 29.875 12.5
    endloop
  endfacet
  facet normal 0 0 1
    outer loop
      vertex 126.25 73.3125 12.5
      vertex 129.536 74.5734 12.5
      vertex 128.786 75.1183 12.5
    endloop
  endfacet
  facet normal 0 0 1
    outer loop
      vertex 133 2 12.5
      vertex 126.25 27.0625 12.5
      vertex 131.214 4.88168 12.5
    endloop
  endfacet
  facet normal 0 0 1
    outer loop
      vertex 126.25 73.3125 12.5
      vertex 128.786 75.1183 12.5
      vertex 128.5 76 12.5
    endloop
  endfacet
  facet normal 0 0 1
    outer loop
      vertex 131.214 4.88168 12.5
      vertex 126.25 27.0625 12.5
      vertex 130.464 5.42658 12.5
    endloop
  endfacet
  facet normal 0 0 1
    outer loop
      vertex 131.214 75.1183 12.5
      vertex 133 78 12.5
      vertex 131.5 76 12.5
    endloop
  endfacet
  facet normal 0 0 1
    outer loop
      vertex 133 78 12.5
      vertex 131.214 76.8817 12.5
      vertex 131.5 76 12.5
    endloop
  endfacet
  facet normal 0 0 1
    outer loop
      vertex 133 78 12.5
      vertex 130.464 77.4266 12.5
      vertex 131.214 76.8817 12.5
    endloop
  endfacet
  facet normal 0 0 1
    outer loop
      vertex 133 78 12.5
      vertex 129.536 77.4266 12.5
      vertex 130.464 77.4266 12.5
    endloop
  endfacet
  facet normal 0 0 1
    outer loop
      vertex 130.464 74.5734 12.5
      vertex 126.25 73.3125 12.5
      vertex 126.25 53 12.5
    endloop
  endfacet
  facet normal 0 0 1
    outer loop
      vertex 128.786 76.8817 12.5
      vertex 126.25 73.3125 12.5
      vertex 128.5 76 12.5
    endloop
  endfacet
  facet normal 0 0 1
    outer loop
      vertex 128.786 76.8817 12.5
      vertex 119.75 73.3125 12.5
      vertex 126.25 73.3125 12.5
    endloop
  endfacet
  facet normal 0 0 1
    outer loop
      vertex 115.214 76.8817 12.5
      vertex 128.786 76.8817 12.5
      vertex 129.536 77.4266 12.5
    endloop
  endfacet
  facet normal -0 0 1
    outer loop
      vertex 115.214 75.1183 12.5
      vertex 119.75 73.3125 12.5
      vertex 115.5 76 12.5
    endloop
  endfacet
  facet normal -0 0 1
    outer loop
      vertex 114.464 74.5734 12.5
      vertex 119.75 73.3125 12.5
      vertex 115.214 75.1183 12.5
    endloop
  endfacet
  facet normal 0 0 1
    outer loop
      vertex 119.75 73.3125 12.5
      vertex 114.464 74.5734 12.5
      vertex 119.75 53 12.5
    endloop
  endfacet
  facet normal -0 0 1
    outer loop
      vertex 113.536 74.5734 12.5
      vertex 119.75 53 12.5
      vertex 114.464 74.5734 12.5
    endloop
  endfacet
  facet normal 0 0 1
    outer loop
      vertex 119.75 29.875 12.5
      vertex 115.5 4 12.5
      vertex 119.75 27.0625 12.5
    endloop
  endfacet
  facet normal 0 0 1
    outer loop
      vertex 119.75 6.75 12.5
      vertex 115.5 4 12.5
      vertex 119.75 4.25 12.5
    endloop
  endfacet
  facet normal 0 0 1
    outer loop
      vertex 119.75 27.0625 12.5
      vertex 115.5 4 12.5
      vertex 119.75 6.75 12.5
    endloop
  endfacet
  facet normal 0 0 1
    outer loop
      vertex 128.786 76.8817 12.5
      vertex 115.214 76.8817 12.5
      vertex 119.75 73.3125 12.5
    endloop
  endfacet
  facet normal 0 0 1
    outer loop
      vertex 114.464 77.4266 12.5
      vertex 129.536 77.4266 12.5
      vertex 133 78 12.5
    endloop
  endfacet
  facet normal 0 0 1
    outer loop
      vertex 119.75 73.3125 12.5
      vertex 115.214 76.8817 12.5
      vertex 115.5 76 12.5
    endloop
  endfacet
  facet normal 0 0 1
    outer loop
      vertex 129.536 77.4266 12.5
      vertex 114.464 77.4266 12.5
      vertex 115.214 76.8817 12.5
    endloop
  endfacet
  facet normal -0 0 1
    outer loop
      vertex 111 78 12.5
      vertex 114.464 77.4266 12.5
      vertex 133 78 12.5
    endloop
  endfacet
  facet normal 0 0 1
    outer loop
      vertex 119.75 29.875 12.5
      vertex 111 2 12.5
      vertex 112.786 4.88168 12.5
    endloop
  endfacet
  facet normal 0 0 1
    outer loop
      vertex 112.786 76.8817 12.5
      vertex 111 78 12.5
      vertex 112.5 76 12.5
    endloop
  endfacet
  facet normal 0 0 1
    outer loop
      vertex 113.536 77.4266 12.5
      vertex 111 78 12.5
      vertex 112.786 76.8817 12.5
    endloop
  endfacet
  facet normal 0 0 1
    outer loop
      vertex 114.464 77.4266 12.5
      vertex 111 78 12.5
      vertex 113.536 77.4266 12.5
    endloop
  endfacet
  facet normal 0 0 1
    outer loop
      vertex 126.25 50.1875 12.5
      vertex 133 78 12.5
      vertex 131.214 75.1183 12.5
    endloop
  endfacet
  facet normal -0 0 1
    outer loop
      vertex 131.214 3.11832 12.5
      vertex 133 2 12.5
      vertex 131.5 4 12.5
    endloop
  endfacet
  facet normal -0 0 1
    outer loop
      vertex 130.464 2.57341 12.5
      vertex 133 2 12.5
      vertex 131.214 3.11832 12.5
    endloop
  endfacet
  facet normal -0 0 1
    outer loop
      vertex 129.536 2.57341 12.5
      vertex 133 2 12.5
      vertex 130.464 2.57341 12.5
    endloop
  endfacet
  facet normal 0 0 1
    outer loop
      vertex 131.214 75.1183 12.5
      vertex 126.25 53 12.5
      vertex 126.25 50.1875 12.5
    endloop
  endfacet
  facet normal -0 0 1
    outer loop
      vertex 126.25 6.75 12.5
      vertex 130.464 5.42658 12.5
      vertex 126.25 27.0625 12.5
    endloop
  endfacet
  facet normal 0 0 1
    outer loop
      vertex 130.464 5.42658 12.5
      vertex 126.25 6.75 12.5
      vertex 129.536 5.42658 12.5
    endloop
  endfacet
  facet normal 0 0 1
    outer loop
      vertex 129.536 5.42658 12.5
      vertex 126.25 6.75 12.5
      vertex 128.786 4.88168 12.5
    endloop
  endfacet
  facet normal 0 0 1
    outer loop
      vertex 126.25 4.25 12.5
      vertex 128.786 4.88168 12.5
      vertex 126.25 6.75 12.5
    endloop
  endfacet
  facet normal 0 0 1
    outer loop
      vertex 128.786 4.88168 12.5
      vertex 126.25 4.25 12.5
      vertex 128.5 4 12.5
    endloop
  endfacet
  facet normal 0 0 1
    outer loop
      vertex 128.5 4 12.5
      vertex 126.25 4.25 12.5
      vertex 128.786 3.11832 12.5
    endloop
  endfacet
  facet normal 0 0 1
    outer loop
      vertex 126.25 2 12.5
      vertex 128.786 3.11832 12.5
      vertex 126.25 4.25 12.5
    endloop
  endfacet
  facet normal 0 0 1
    outer loop
      vertex 129.536 2.57341 12.5
      vertex 126.25 2 12.5
      vertex 133 2 12.5
    endloop
  endfacet
  facet normal 0 0 1
    outer loop
      vertex 128.786 3.11832 12.5
      vertex 126.25 2 12.5
      vertex 129.536 2.57341 12.5
    endloop
  endfacet
  facet normal 0 0 1
    outer loop
      vertex 119.75 4.25 12.5
      vertex 115.5 4 12.5
      vertex 119.75 2 12.5
    endloop
  endfacet
  facet normal -0 0 1
    outer loop
      vertex 115.214 3.11832 12.5
      vertex 119.75 2 12.5
      vertex 115.5 4 12.5
    endloop
  endfacet
  facet normal -0 0 1
    outer loop
      vertex 114.464 2.57341 12.5
      vertex 119.75 2 12.5
      vertex 115.214 3.11832 12.5
    endloop
  endfacet
  facet normal 0 0 1
    outer loop
      vertex 111 2 12.5
      vertex 114.464 2.57341 12.5
      vertex 113.536 2.57341 12.5
    endloop
  endfacet
  facet normal 0 0 1
    outer loop
      vertex 114.464 2.57341 12.5
      vertex 111 2 12.5
      vertex 119.75 2 12.5
    endloop
  endfacet
  facet normal 0 0 1
    outer loop
      vertex 112.786 3.11832 12.5
      vertex 111 2 12.5
      vertex 113.536 2.57341 12.5
    endloop
  endfacet
  facet normal 0 0 1
    outer loop
      vertex 112.5 4 12.5
      vertex 111 2 12.5
      vertex 112.786 3.11832 12.5
    endloop
  endfacet
  facet normal 0 0 1
    outer loop
      vertex 112.786 4.88168 12.5
      vertex 111 2 12.5
      vertex 112.5 4 12.5
    endloop
  endfacet
  facet normal 1 -0 0
    outer loop
      vertex 133 2 12.5
      vertex 133 78 9.5
      vertex 133 78 12.5
    endloop
  endfacet
  facet normal 1 0 0
    outer loop
      vertex 133 78 9.5
      vertex 133 2 12.5
      vertex 133 2 9.5
    endloop
  endfacet
  facet normal 0 0 -1
    outer loop
      vertex 112.786 4.88168 9.5
      vertex 119.75 27.0625 9.5
      vertex 113.536 5.42658 9.5
    endloop
  endfacet
  facet normal 0 0 -1
    outer loop
      vertex 119.75 50.1875 9.5
      vertex 115.214 75.1183 9.5
      vertex 115.5 76 9.5
    endloop
  endfacet
  facet normal -0 0 -1
    outer loop
      vertex 119.75 27.0625 9.5
      vertex 112.786 4.88168 9.5
      vertex 119.75 29.875 9.5
    endloop
  endfacet
  facet normal 0 0 -1
    outer loop
      vertex 119.75 50.1875 9.5
      vertex 114.464 74.5734 9.5
      vertex 115.214 75.1183 9.5
    endloop
  endfacet
  facet normal 0 0 -1
    outer loop
      vertex 111 2 9.5
      vertex 119.75 29.875 9.5
      vertex 112.786 4.88168 9.5
    endloop
  endfacet
  facet normal 0 0 -1
    outer loop
      vertex 119.75 50.1875 9.5
      vertex 113.536 74.5734 9.5
      vertex 114.464 74.5734 9.5
    endloop
  endfacet
  facet normal -0 0 -1
    outer loop
      vertex 119.75 29.875 9.5
      vertex 111 2 9.5
      vertex 119.75 50.1875 9.5
    endloop
  endfacet
  facet normal 0 0 -1
    outer loop
      vertex 119.75 50.1875 9.5
      vertex 112.786 75.1183 9.5
      vertex 113.536 74.5734 9.5
    endloop
  endfacet
  facet normal 0 0 -1
    outer loop
      vertex 111 2 9.5
      vertex 112.786 4.88168 9.5
      vertex 112.5 4 9.5
    endloop
  endfacet
  facet normal 0 0 -1
    outer loop
      vertex 111 78 9.5
      vertex 119.75 50.1875 9.5
      vertex 111 2 9.5
    endloop
  endfacet
  facet normal 0 0 -1
    outer loop
      vertex 115.5 4 9.5
      vertex 119.75 4.25 9.5
      vertex 119.75 2 9.5
    endloop
  endfacet
  facet normal 0 0 -1
    outer loop
      vertex 115.214 4.88168 9.5
      vertex 119.75 4.25 9.5
      vertex 115.5 4 9.5
    endloop
  endfacet
  facet normal 0 0 -1
    outer loop
      vertex 119.75 4.25 9.5
      vertex 115.214 4.88168 9.5
      vertex 119.75 6.75 9.5
    endloop
  endfacet
  facet normal 0 0 -1
    outer loop
      vertex 114.464 5.42658 9.5
      vertex 119.75 6.75 9.5
      vertex 115.214 4.88168 9.5
    endloop
  endfacet
  facet normal -0 0 -1
    outer loop
      vertex 119.75 6.75 9.5
      vertex 114.464 5.42658 9.5
      vertex 119.75 27.0625 9.5
    endloop
  endfacet
  facet normal 0 0 -1
    outer loop
      vertex 113.536 5.42658 9.5
      vertex 119.75 27.0625 9.5
      vertex 114.464 5.42658 9.5
    endloop
  endfacet
  facet normal 0 0 -1
    outer loop
      vertex 119.75 50.1875 9.5
      vertex 115.5 76 9.5
      vertex 119.75 53 9.5
    endloop
  endfacet
  facet normal 0 0 -1
    outer loop
      vertex 119.75 2 9.5
      vertex 115.214 3.11832 9.5
      vertex 115.5 4 9.5
    endloop
  endfacet
  facet normal 0 0 -1
    outer loop
      vertex 119.75 2 9.5
      vertex 114.464 2.57341 9.5
      vertex 115.214 3.11832 9.5
    endloop
  endfacet
  facet normal 0 0 -1
    outer loop
      vertex 111 2 9.5
      vertex 114.464 2.57341 9.5
      vertex 119.75 2 9.5
    endloop
  endfacet
  facet normal 0 0 -1
    outer loop
      vertex 119.75 50.1875 9.5
      vertex 111 78 9.5
      vertex 112.786 75.1183 9.5
    endloop
  endfacet
  facet normal -0 0 -1
    outer loop
      vertex 112.786 3.11832 9.5
      vertex 111 2 9.5
      vertex 112.5 4 9.5
    endloop
  endfacet
  facet normal -0 0 -1
    outer loop
      vertex 113.536 2.57341 9.5
      vertex 111 2 9.5
      vertex 112.786 3.11832 9.5
    endloop
  endfacet
  facet normal -0 0 -1
    outer loop
      vertex 114.464 2.57341 9.5
      vertex 111 2 9.5
      vertex 113.536 2.57341 9.5
    endloop
  endfacet
  facet normal 0 0 -1
    outer loop
      vertex 119.75 50.1875 9.5
      vertex 126.25 53 9.5
      vertex 126.25 50.1875 9.5
    endloop
  endfacet
  facet normal -0 0 -1
    outer loop
      vertex 126.25 53 9.5
      vertex 119.75 50.1875 9.5
      vertex 119.75 53 9.5
    endloop
  endfacet
  facet normal 0 0 -1
    outer loop
      vertex 119.75 27.0625 9.5
      vertex 126.25 29.875 9.5
      vertex 126.25 27.0625 9.5
    endloop
  endfacet
  facet normal -0 0 -1
    outer loop
      vertex 126.25 29.875 9.5
      vertex 119.75 27.0625 9.5
      vertex 119.75 29.875 9.5
    endloop
  endfacet
  facet normal 0 0 -1
    outer loop
      vertex 119.75 4.25 9.5
      vertex 126.25 6.75 9.5
      vertex 126.25 4.25 9.5
    endloop
  endfacet
  facet normal -0 0 -1
    outer loop
      vertex 126.25 6.75 9.5
      vertex 119.75 4.25 9.5
      vertex 119.75 6.75 9.5
    endloop
  endfacet
  facet normal 0 0 -1
    outer loop
      vertex 133 2 9.5
      vertex 126.25 29.875 9.5
      vertex 133 78 9.5
    endloop
  endfacet
  facet normal 0 0 -1
    outer loop
      vertex 133 78 9.5
      vertex 131.214 75.1183 9.5
      vertex 131.5 76 9.5
    endloop
  endfacet
  facet normal 0 0 -1
    outer loop
      vertex 126.25 27.0625 9.5
      vertex 131.214 4.88168 9.5
      vertex 130.464 5.42658 9.5
    endloop
  endfacet
  facet normal 0 0 -1
    outer loop
      vertex 126.25 50.1875 9.5
      vertex 133 78 9.5
      vertex 126.25 29.875 9.5
    endloop
  endfacet
  facet normal 0 0 -1
    outer loop
      vertex 126.25 6.75 9.5
      vertex 130.464 5.42658 9.5
      vertex 129.536 5.42658 9.5
    endloop
  endfacet
  facet normal 0 0 -1
    outer loop
      vertex 126.25 53 9.5
      vertex 133 78 9.5
      vertex 126.25 50.1875 9.5
    endloop
  endfacet
  facet normal 0 0 -1
    outer loop
      vertex 126.25 6.75 9.5
      vertex 129.536 5.42658 9.5
      vertex 128.786 4.88168 9.5
    endloop
  endfacet
  facet normal 0 0 -1
    outer loop
      vertex 133 78 9.5
      vertex 126.25 53 9.5
      vertex 131.214 75.1183 9.5
    endloop
  endfacet
  facet normal 0 0 -1
    outer loop
      vertex 126.25 4.25 9.5
      vertex 128.786 4.88168 9.5
      vertex 128.5 4 9.5
    endloop
  endfacet
  facet normal 0 0 -1
    outer loop
      vertex 131.214 75.1183 9.5
      vertex 126.25 53 9.5
      vertex 130.464 74.5734 9.5
    endloop
  endfacet
  facet normal 0 0 -1
    outer loop
      vertex 131.214 4.88168 9.5
      vertex 133 2 9.5
      vertex 131.5 4 9.5
    endloop
  endfacet
  facet normal 0 0 -1
    outer loop
      vertex 133 2 9.5
      vertex 131.214 3.11832 9.5
      vertex 131.5 4 9.5
    endloop
  endfacet
  facet normal 0 0 -1
    outer loop
      vertex 133 2 9.5
      vertex 130.464 2.57341 9.5
      vertex 131.214 3.11832 9.5
    endloop
  endfacet
  facet normal 0 0 -1
    outer loop
      vertex 133 2 9.5
      vertex 129.536 2.57341 9.5
      vertex 130.464 2.57341 9.5
    endloop
  endfacet
  facet normal 0 0 -1
    outer loop
      vertex 126.25 4.25 9.5
      vertex 128.5 4 9.5
      vertex 126.25 2 9.5
    endloop
  endfacet
  facet normal -0 0 -1
    outer loop
      vertex 128.786 3.11832 9.5
      vertex 126.25 2 9.5
      vertex 128.5 4 9.5
    endloop
  endfacet
  facet normal -0 0 -1
    outer loop
      vertex 129.536 2.57341 9.5
      vertex 126.25 2 9.5
      vertex 128.786 3.11832 9.5
    endloop
  endfacet
  facet normal 0 0 -1
    outer loop
      vertex 126.25 2 9.5
      vertex 129.536 2.57341 9.5
      vertex 133 2 9.5
    endloop
  endfacet
  facet normal 0 0 -1
    outer loop
      vertex 126.25 29.875 9.5
      vertex 133 2 9.5
      vertex 131.214 4.88168 9.5
    endloop
  endfacet
  facet normal 0 0 -1
    outer loop
      vertex 131.214 76.8817 9.5
      vertex 133 78 9.5
      vertex 131.5 76 9.5
    endloop
  endfacet
  facet normal 0 0 -1
    outer loop
      vertex 130.464 77.4266 9.5
      vertex 133 78 9.5
      vertex 131.214 76.8817 9.5
    endloop
  endfacet
  facet normal 0 0 -1
    outer loop
      vertex 129.536 77.4266 9.5
      vertex 133 78 9.5
      vertex 130.464 77.4266 9.5
    endloop
  endfacet
  facet normal -0 0 -1
    outer loop
      vertex 128.786 4.88168 9.5
      vertex 126.25 4.25 9.5
      vertex 126.25 6.75 9.5
    endloop
  endfacet
  facet normal 0 0 -1
    outer loop
      vertex 130.464 5.42658 9.5
      vertex 126.25 6.75 9.5
      vertex 126.25 27.0625 9.5
    endloop
  endfacet
  facet normal 0 0 -1
    outer loop
      vertex 131.214 4.88168 9.5
      vertex 126.25 27.0625 9.5
      vertex 126.25 29.875 9.5
    endloop
  endfacet
  facet normal 0 0 -1
    outer loop
      vertex 126.25 73.3125 9.5
      vertex 130.464 74.5734 9.5
      vertex 126.25 53 9.5
    endloop
  endfacet
  facet normal -0 0 -1
    outer loop
      vertex 130.464 74.5734 9.5
      vertex 126.25 73.3125 9.5
      vertex 129.536 74.5734 9.5
    endloop
  endfacet
  facet normal -0 0 -1
    outer loop
      vertex 129.536 74.5734 9.5
      vertex 126.25 73.3125 9.5
      vertex 128.786 75.1183 9.5
    endloop
  endfacet
  facet normal -0 0 -1
    outer loop
      vertex 128.786 75.1183 9.5
      vertex 126.25 73.3125 9.5
      vertex 128.5 76 9.5
    endloop
  endfacet
  facet normal 0 0 -1
    outer loop
      vertex 126.25 73.3125 9.5
      vertex 128.786 76.8817 9.5
      vertex 128.5 76 9.5
    endloop
  endfacet
  facet normal 0 0 -1
    outer loop
      vertex 119.75 73.3125 9.5
      vertex 128.786 76.8817 9.5
      vertex 126.25 73.3125 9.5
    endloop
  endfacet
  facet normal 0 0 -1
    outer loop
      vertex 115.214 76.8817 9.5
      vertex 128.786 76.8817 9.5
      vertex 119.75 73.3125 9.5
    endloop
  endfacet
  facet normal 0 0 -1
    outer loop
      vertex 119.75 53 9.5
      vertex 115.5 76 9.5
      vertex 119.75 73.3125 9.5
    endloop
  endfacet
  facet normal 0 0 -1
    outer loop
      vertex 115.214 76.8817 9.5
      vertex 119.75 73.3125 9.5
      vertex 115.5 76 9.5
    endloop
  endfacet
  facet normal 0 0 -1
    outer loop
      vertex 128.786 76.8817 9.5
      vertex 115.214 76.8817 9.5
      vertex 129.536 77.4266 9.5
    endloop
  endfacet
  facet normal 0 0 -1
    outer loop
      vertex 114.464 77.4266 9.5
      vertex 129.536 77.4266 9.5
      vertex 115.214 76.8817 9.5
    endloop
  endfacet
  facet normal 0 0 -1
    outer loop
      vertex 129.536 77.4266 9.5
      vertex 114.464 77.4266 9.5
      vertex 133 78 9.5
    endloop
  endfacet
  facet normal 0 0 -1
    outer loop
      vertex 111 78 9.5
      vertex 114.464 77.4266 9.5
      vertex 113.536 77.4266 9.5
    endloop
  endfacet
  facet normal 0 0 -1
    outer loop
      vertex 114.464 77.4266 9.5
      vertex 111 78 9.5
      vertex 133 78 9.5
    endloop
  endfacet
  facet normal 0 0 -1
    outer loop
      vertex 112.786 76.8817 9.5
      vertex 111 78 9.5
      vertex 113.536 77.4266 9.5
    endloop
  endfacet
  facet normal 0 0 -1
    outer loop
      vertex 112.5 76 9.5
      vertex 111 78 9.5
      vertex 112.786 76.8817 9.5
    endloop
  endfacet
  facet normal 0 0 -1
    outer loop
      vertex 112.786 75.1183 9.5
      vertex 111 78 9.5
      vertex 112.5 76 9.5
    endloop
  endfacet
  facet normal 0 -1 0
    outer loop
      vertex 111 2 9.5
      vertex 119.75 2 12.5
      vertex 111 2 12.5
    endloop
  endfacet
  facet normal 0 -1 -0
    outer loop
      vertex 119.75 2 12.5
      vertex 111 2 9.5
      vertex 119.75 2 9.5
    endloop
  endfacet
  facet normal 0 -1 0
    outer loop
      vertex 126.25 2 9.5
      vertex 133 2 12.5
      vertex 126.25 2 12.5
    endloop
  endfacet
  facet normal 0 -1 -0
    outer loop
      vertex 133 2 12.5
      vertex 126.25 2 9.5
      vertex 133 2 9.5
    endloop
  endfacet
  facet normal 0 1 -0
    outer loop
      vertex 133 78 9.5
      vertex 111 78 12.5
      vertex 133 78 12.5
    endloop
  endfacet
  facet normal 0 1 0
    outer loop
      vertex 111 78 12.5
      vertex 133 78 9.5
      vertex 111 78 9.5
    endloop
  endfacet
  facet normal 1 -0 0
    outer loop
      vertex 119.75 6.75 12.5
      vertex 119.75 27.0625 9.5
      vertex 119.75 27.0625 12.5
    endloop
  endfacet
  facet normal 1 0 0
    outer loop
      vertex 119.75 27.0625 9.5
      vertex 119.75 6.75 12.5
      vertex 119.75 6.75 9.5
    endloop
  endfacet
  facet normal -1 0 0
    outer loop
      vertex 126.25 6.75 9.5
      vertex 126.25 27.0625 12.5
      vertex 126.25 27.0625 9.5
    endloop
  endfacet
  facet normal -1 -0 0
    outer loop
      vertex 126.25 27.0625 12.5
      vertex 126.25 6.75 9.5
      vertex 126.25 6.75 12.5
    endloop
  endfacet
  facet normal 0 1 -0
    outer loop
      vertex 126.25 6.75 9.5
      vertex 119.75 6.75 12.5
      vertex 126.25 6.75 12.5
    endloop
  endfacet
  facet normal 0 1 0
    outer loop
      vertex 119.75 6.75 12.5
      vertex 126.25 6.75 9.5
      vertex 119.75 6.75 9.5
    endloop
  endfacet
  facet normal 0 -1 0
    outer loop
      vertex 119.75 27.0625 9.5
      vertex 126.25 27.0625 12.5
      vertex 119.75 27.0625 12.5
    endloop
  endfacet
  facet normal 0 -1 -0
    outer loop
      vertex 126.25 27.0625 12.5
      vertex 119.75 27.0625 9.5
      vertex 126.25 27.0625 9.5
    endloop
  endfacet
  facet normal 1 -0 0
    outer loop
      vertex 119.75 29.875 12.5
      vertex 119.75 50.1875 9.5
      vertex 119.75 50.1875 12.5
    endloop
  endfacet
  facet normal 1 0 0
    outer loop
      vertex 119.75 50.1875 9.5
      vertex 119.75 29.875 12.5
      vertex 119.75 29.875 9.5
    endloop
  endfacet
  facet normal -1 0 0
    outer loop
      vertex 126.25 29.875 9.5
      vertex 126.25 50.1875 12.5
      vertex 126.25 50.1875 9.5
    endloop
  endfacet
  facet normal -1 -0 0
    outer loop
      vertex 126.25 50.1875 12.5
      vertex 126.25 29.875 9.5
      vertex 126.25 29.875 12.5
    endloop
  endfacet
  facet normal 0 1 -0
    outer loop
      vertex 126.25 29.875 9.5
      vertex 119.75 29.875 12.5
      vertex 126.25 29.875 12.5
    endloop
  endfacet
  facet normal 0 1 0
    outer loop
      vertex 119.75 29.875 12.5
      vertex 126.25 29.875 9.5
      vertex 119.75 29.875 9.5
    endloop
  endfacet
  facet normal 0 -1 0
    outer loop
      vertex 119.75 50.1875 9.5
      vertex 126.25 50.1875 12.5
      vertex 119.75 50.1875 12.5
    endloop
  endfacet
  facet normal 0 -1 -0
    outer loop
      vertex 126.25 50.1875 12.5
      vertex 119.75 50.1875 9.5
      vertex 126.25 50.1875 9.5
    endloop
  endfacet
  facet normal 1 -0 0
    outer loop
      vertex 119.75 53 12.5
      vertex 119.75 73.3125 9.5
      vertex 119.75 73.3125 12.5
    endloop
  endfacet
  facet normal 1 0 0
    outer loop
      vertex 119.75 73.3125 9.5
      vertex 119.75 53 12.5
      vertex 119.75 53 9.5
    endloop
  endfacet
  facet normal -1 0 0
    outer loop
      vertex 126.25 53 9.5
      vertex 126.25 73.3125 12.5
      vertex 126.25 73.3125 9.5
    endloop
  endfacet
  facet normal -1 -0 0
    outer loop
      vertex 126.25 73.3125 12.5
      vertex 126.25 53 9.5
      vertex 126.25 53 12.5
    endloop
  endfacet
  facet normal 0 -1 0
    outer loop
      vertex 119.75 73.3125 9.5
      vertex 126.25 73.3125 12.5
      vertex 119.75 73.3125 12.5
    endloop
  endfacet
  facet normal 0 -1 -0
    outer loop
      vertex 126.25 73.3125 12.5
      vertex 119.75 73.3125 9.5
      vertex 126.25 73.3125 9.5
    endloop
  endfacet
  facet normal 0 1 -0
    outer loop
      vertex 126.25 53 9.5
      vertex 119.75 53 12.5
      vertex 126.25 53 12.5
    endloop
  endfacet
  facet normal 0 1 0
    outer loop
      vertex 119.75 53 12.5
      vertex 126.25 53 9.5
      vertex 119.75 53 9.5
    endloop
  endfacet
  facet normal 1 -0 0
    outer loop
      vertex 119.75 2 12.5
      vertex 119.75 4.25 9.5
      vertex 119.75 4.25 12.5
    endloop
  endfacet
  facet normal 1 0 0
    outer loop
      vertex 119.75 4.25 9.5
      vertex 119.75 2 12.5
      vertex 119.75 2 9.5
    endloop
  endfacet
  facet normal -1 0 0
    outer loop
      vertex 126.25 2 9.5
      vertex 126.25 4.25 12.5
      vertex 126.25 4.25 9.5
    endloop
  endfacet
  facet normal -1 -0 0
    outer loop
      vertex 126.25 4.25 12.5
      vertex 126.25 2 9.5
      vertex 126.25 2 12.5
    endloop
  endfacet
  facet normal 0 -1 0
    outer loop
      vertex 119.75 4.25 9.5
      vertex 126.25 4.25 12.5
      vertex 119.75 4.25 12.5
    endloop
  endfacet
  facet normal 0 -1 -0
    outer loop
      vertex 126.25 4.25 12.5
      vertex 119.75 4.25 9.5
      vertex 126.25 4.25 9.5
    endloop
  endfacet
endsolid OpenSCAD_Model
